<?xml version="1.0" encoding="utf-8"?>
<!-- Generator: Adobe Illustrator 24.1.3, SVG Export Plug-In . SVG Version: 6.00 Build 0)  -->
<svg version="1.1" id="Layer_1" xmlns="http://www.w3.org/2000/svg" xmlns:xlink="http://www.w3.org/1999/xlink" x="0px" y="0px"
	 viewBox="0 0 5000 5000" style="enable-background:new 0 0 5000 5000;" xml:space="preserve">
<style type="text/css">
	.st0{fill:#231F20;}
	.st1{fill:#26A9E0;}
</style>
<path class="st0" d="M1228.58,3026.4c-11.45,0-22.77-0.54-33.95-1.58l0.39,77.74c0.04,8.95,7.07,16.16,15.69,16.12l115.32-0.58
	l-78.68-92.19C1241.13,3026.23,1234.87,3026.4,1228.58,3026.4z"/>
<path class="st1" d="M1809.37,2516.12c-0.04-8.95-7.07-16.16-15.69-16.12l-241.72,1.21c24.77,49.01,38.72,104.42,38.72,163.08
	c0,128.73-67.17,241.76-168.37,305.97l119.88,146.76l254.58-1.27c8.62-0.04,15.57-7.33,15.53-16.28L1809.37,2516.12z"/>
<path class="st0" d="M1192.1,2519.21l1.6,318.98c11.28,2.25,22.94,3.43,34.88,3.43c97.94,0,177.33-79.39,177.33-177.33
	c0-72.07-42.99-134.09-104.72-161.83l-93.56,0.47C1199.01,2502.98,1192.06,2510.26,1192.1,2519.21z"/>
<g>
	<path d="M1999.76,3072.97l-14.81-20.76c-1.95,0.27-3.9,0.44-6.03,0.44h-17.74v20.31h-4.52v-62.09h22.26
		c15.61,0,25.01,7.81,25.01,20.93c0,9.85-5.32,16.68-14.55,19.43l15.52,21.73H1999.76z M1978.92,3048.67
		c13.3,0,20.4-6.21,20.4-16.85c0-10.73-7.1-16.85-20.4-16.85h-17.74v33.71H1978.92z"/>
	<path d="M2089.98,3068.89v4.08h-42.84v-62.09h41.51v4.08h-36.99v24.48h33.08v3.99h-33.08v25.46H2089.98z"/>
	<path d="M2177.09,3042.2h4.35v23.24c-5.59,5.32-13.66,7.98-22.17,7.98c-18.72,0-32.46-13.39-32.46-31.49
		c0-18.09,13.75-31.49,32.55-31.49c8.96,0,16.85,2.84,22.35,8.52l-2.84,3.02c-5.41-5.32-11.89-7.36-19.43-7.36
		c-16.14,0-28.12,11.71-28.12,27.32c0,15.52,11.97,27.32,28.12,27.32c6.56,0,12.6-1.6,17.65-5.68V3042.2z"/>
	<path d="M2227.92,3010.88h4.52v62.09h-4.52V3010.88z"/>
	<path d="M2274.4,3064.99l2.04-3.37c4.26,4.44,12.15,7.81,20.49,7.81c12.42,0,17.92-5.41,17.92-12.15
		c0-18.63-38.76-7.45-38.76-30.34c0-8.78,6.74-16.5,22-16.5c6.83,0,13.93,2.13,18.72,5.59l-1.69,3.64
		c-5.14-3.55-11.44-5.23-17.03-5.23c-12.06,0-17.47,5.59-17.47,12.42c0,18.63,38.76,7.63,38.76,30.16c0,8.78-7.01,16.41-22.35,16.41
		C2287.79,3073.42,2278.92,3069.96,2274.4,3064.99z"/>
	<path d="M2372.33,3014.96h-22.35v-4.08h49.23v4.08h-22.35v58.01h-4.52V3014.96z"/>
	<path d="M2480.1,3072.97l-14.81-20.76c-1.95,0.27-3.9,0.44-6.03,0.44h-17.74v20.31H2437v-62.09h22.26
		c15.61,0,25.01,7.81,25.01,20.93c0,9.85-5.32,16.68-14.55,19.43l15.52,21.73H2480.1z M2459.26,3048.67c13.3,0,20.4-6.21,20.4-16.85
		c0-10.73-7.1-16.85-20.4-16.85h-17.74v33.71H2459.26z"/>
	<path d="M2565.88,3055.5h-36.01l-7.89,17.47h-4.88l28.56-62.09h4.52l28.56,62.09h-4.88L2565.88,3055.5z M2564.2,3051.69
		l-16.32-35.83l-16.23,35.83H2564.2z"/>
	<path d="M2625.41,3014.96h-22.35v-4.08h49.23v4.08h-22.35v58.01h-4.52V3014.96z"/>
	<path d="M2690.07,3010.88h4.52v62.09h-4.52V3010.88z"/>
	<path d="M2736.91,3041.93c0-18.01,13.75-31.49,32.29-31.49c18.45,0,32.29,13.39,32.29,31.49c0,18.1-13.84,31.49-32.29,31.49
		C2750.66,3073.42,2736.91,3059.94,2736.91,3041.93z M2796.87,3041.93c0-15.7-11.89-27.32-27.67-27.32
		c-15.88,0-27.76,11.62-27.76,27.32c0,15.7,11.89,27.32,27.76,27.32C2784.99,3069.25,2796.87,3057.63,2796.87,3041.93z"/>
	<path d="M2894.36,3010.88v62.09h-3.73l-42.31-53.93v53.93h-4.52v-62.09h3.81l42.22,53.93v-53.93H2894.36z"/>
	<path d="M3050.75,3072.97l-0.09-53.13l-25.99,44.88h-2.22l-25.99-44.71v52.95h-4.43v-62.09h3.81l27.76,47.99l27.76-47.99h3.73
		l0.09,62.09H3050.75z"/>
	<path d="M3141.85,3055.5h-36.01l-7.89,17.47h-4.88l28.56-62.09h4.52l28.56,62.09h-4.88L3141.85,3055.5z M3140.17,3051.69
		l-16.32-35.83l-16.23,35.83H3140.17z"/>
	<path d="M3243.15,3010.88v62.09h-3.73l-42.31-53.93v53.93h-4.52v-62.09h3.81l42.22,53.93v-53.93H3243.15z"/>
	<path d="M3329.82,3055.5h-36.01l-7.89,17.47h-4.88l28.56-62.09h4.52l28.56,62.09h-4.88L3329.82,3055.5z M3328.13,3051.69
		l-16.32-35.83l-16.23,35.83H3328.13z"/>
	<path d="M3424.02,3042.2h4.35v23.24c-5.59,5.32-13.66,7.98-22.17,7.98c-18.72,0-32.46-13.39-32.46-31.49
		c0-18.09,13.75-31.49,32.55-31.49c8.96,0,16.85,2.84,22.35,8.52l-2.84,3.02c-5.41-5.32-11.89-7.36-19.43-7.36
		c-16.14,0-28.12,11.71-28.12,27.32c0,15.52,11.97,27.32,28.12,27.32c6.56,0,12.6-1.6,17.65-5.68V3042.2z"/>
	<path d="M3517.7,3068.89v4.08h-42.84v-62.09h41.51v4.08h-36.99v24.48h33.08v3.99h-33.08v25.46H3517.7z"/>
	<path d="M3603.92,3072.97l-14.81-20.76c-1.95,0.27-3.9,0.44-6.03,0.44h-17.74v20.31h-4.52v-62.09h22.26
		c15.61,0,25.01,7.81,25.01,20.93c0,9.85-5.32,16.68-14.55,19.43l15.52,21.73H3603.92z M3583.07,3048.67
		c13.3,0,20.4-6.21,20.4-16.85c0-10.73-7.1-16.85-20.4-16.85h-17.74v33.71H3583.07z"/>
</g>
<g>
	<path d="M2130.96,2799.46l50.86,138.84c4.47,12.05,1.68,33.85-21.24,33.85h-38.56c-11.74,0-19-5.74-22.35-15.49l-49.74-143.43
		h-16.77v135.4c0,14.92-8.38,23.52-22.91,23.52h-36.88c-14.53,0-22.91-8.61-22.91-23.52V2580.3c0-14.92,8.38-23.52,22.91-23.52
		h87.74c72.09,0,110.65,28.69,110.65,91.22v74.01C2171.75,2759.87,2157.78,2785.12,2130.96,2799.46z M2061.1,2748.97
		c18.44,0,27.94-11.47,27.94-26.96V2648c0-15.49-9.5-26.96-27.94-26.96h-27.94v127.94H2061.1z"/>
	<path d="M2380.2,2556.78c14.53,0,22.91,8.61,22.91,23.52v17.21c0,14.92-8.38,23.52-22.91,23.52h-81.03v111.3h59.8
		c14.53,0,22.91,8.61,22.91,23.52v17.21c0,14.92-8.38,23.52-22.91,23.52h-59.8v111.3h81.03c14.53,0,22.91,8.61,22.91,23.52v17.21
		c0,14.92-8.38,23.52-22.91,23.52h-140.83c-14.53,0-22.91-8.61-22.91-23.52V2580.3c0-14.92,8.38-23.52,22.91-23.52H2380.2z"/>
	<path d="M2629.44,2751.27c14.53,0,22.91,8.61,22.91,23.52v109.01c0,62.54-38.56,91.22-110.65,91.22s-110.65-28.69-110.65-91.22
		v-238.67c0-62.54,38.56-91.22,110.65-91.22s110.65,28.69,110.65,91.22v35c0,14.92-8.38,23.52-22.91,23.52h-36.88
		c-14.53,0-22.91-8.61-22.91-23.52v-35c0-15.49-9.5-26.96-27.94-26.96s-27.94,11.47-27.94,26.96v238.67
		c0,15.49,9.5,26.96,27.94,26.96s27.94-11.47,27.94-26.96v-68.27h-5.03c-14.53,0-22.91-8.61-22.91-23.52v-17.21
		c0-14.92,8.38-23.52,22.91-23.52H2629.44z"/>
	<path class="st1" d="M2733.94,2522.93c25.15,0,42.47,17.79,42.47,43.6c0,25.82-17.32,43.6-42.47,43.6s-42.47-17.79-42.47-43.6
		C2691.47,2540.72,2708.79,2522.93,2733.94,2522.93z M2770.83,2948.63c0,14.92-8.38,23.52-22.91,23.52h-27.94
		c-14.53,0-22.91-8.61-22.91-23.52v-280.55c0-14.92,8.38-23.52,22.91-23.52h27.94c14.53,0,22.91,8.61,22.91,23.52V2948.63z"/>
	<path d="M2940.71,2896.42c-13.41,0-20.68-7.46-22.35-17.21l-31.29-190.47h-5.59l5.59,80.32v179.57c0,14.92-8.38,23.52-22.91,23.52
		h-25.71c-14.53,0-22.91-8.61-22.91-23.52V2580.3c0-15.49,8.94-23.52,22.91-23.52h62.03c14.53,0,21.24,7.46,23.47,22.38
		l20.68,102.12l12.85,98.68h5.59l12.85-98.68l20.68-102.12c2.24-14.92,8.94-22.38,23.47-22.38h62.03c13.97,0,22.91,8.03,22.91,23.52
		v368.33c0,14.92-8.38,23.52-22.91,23.52h-25.71c-14.53,0-22.91-8.61-22.91-23.52v-179.57l5.59-80.32h-5.59l-31.3,190.47
		c-1.68,9.75-8.94,17.21-22.35,17.21H2940.71z"/>
	<path d="M3292.78,2951.5l-6.71-57.37h-67.06l-6.71,57.37c-1.68,16.06-12.29,20.65-22.91,20.65h-33.53
		c-16.77,0-25.15-12.05-22.35-29.26l53.65-363.74c2.24-16.64,10.62-22.38,23.47-22.38h83.83c12.85,0,21.24,5.74,23.47,22.38
		l53.65,363.74c2.79,17.21-5.59,29.26-22.35,29.26h-33.53C3305.08,2972.15,3294.46,2967.56,3292.78,2951.5z M3226.28,2829.87h51.97
		l-7.27-65.4l-15.65-153.18h-5.59l-15.65,153.18L3226.28,2829.87z"/>
	<path d="M3549.85,2580.3c0-14.92,8.38-23.52,22.91-23.52h31.3c14.53,0,22.91,8.61,22.91,23.52v368.33
		c0,14.92-8.38,23.52-22.91,23.52h-37.44c-13.97,0-19.56-7.46-22.91-17.21l-41.91-123.92l-27.38-99.83l-5.59,1.15l8.38,102.69v113.6
		c0,14.92-8.38,23.52-22.91,23.52h-31.29c-14.53,0-22.91-8.61-22.91-23.52V2580.3c0-14.92,8.38-23.52,22.91-23.52h37.44
		c13.97,0,19.56,7.46,22.91,17.21l41.91,123.92l27.38,99.83l5.59-1.15l-8.38-102.7V2580.3z"/>
</g>
</svg>
